<?xml version="1.0" encoding="UTF-8"?><!DOCTYPE score-partwise PUBLIC "-//Recordare//DTD MusicXML 3.1 Partwise//EN" "http://www.musicxml.org/dtds/partwise.dtd"><score-partwise version="3.1"><identification><encoding><software>MuseScore 3.2.3</software><encoding-date>2021-05-19</encoding-date><supports element="accidental" type="yes"/><supports element="beam" type="yes"/><supports element="print" attribute="new-page" type="yes" value="yes"/><supports element="print" attribute="new-system" type="yes" value="yes"/><supports element="stem" type="yes"/></encoding></identification><defaults><scaling><millimeters>7.05556</millimeters><tenths>40</tenths></scaling><page-layout><page-height>1683.78</page-height><page-width>1190.55</page-width><page-margins type="even"><left-margin>56.6929</left-margin><right-margin>56.6929</right-margin><top-margin>56.6929</top-margin><bottom-margin>113.386</bottom-margin></page-margins><page-margins type="odd"><left-margin>56.6929</left-margin><right-margin>56.6929</right-margin><top-margin>56.6929</top-margin><bottom-margin>113.386</bottom-margin></page-margins></page-layout><word-font font-family="FreeSerif" font-size="10"/><lyric-font font-family="FreeSerif" font-size="11"/></defaults><part-list><score-part id="P1"><part-name>Grand Piano</part-name><score-instrument id="P1-I1"><instrument-name></instrument-name></score-instrument><midi-device id="P1-I1" port="1"></midi-device><midi-instrument id="P1-I1"><midi-channel>1</midi-channel><midi-program>1</midi-program><volume>78.7402</volume><pan>0</pan></midi-instrument></score-part></part-list><part id="P1"><measure number="1" width="124.17"><print><system-layout><system-margins><left-margin>0.00</left-margin><right-margin>0.00</right-margin></system-margins><top-system-distance>70.00</top-system-distance></system-layout></print><attributes><divisions>4</divisions><key><fifths>0</fifths></key><time><beats>4</beats><beat-type>4</beat-type></time><clef><sign>G</sign><line>2</line></clef></attributes><direction placement="above"><direction-type><metronome parentheses="no" default-x="-36.00" relative-y="20.00"><beat-unit>quarter</beat-unit><per-minute>94</per-minute></metronome></direction-type><sound tempo="94"/></direction><note><rest/><duration>16</duration><voice>1</voice></note></measure><measure number="2" width="68.32"><note><rest/><duration>16</duration><voice>1</voice></note></measure><measure number="3" width="68.32"><note><rest/><duration>16</duration><voice>1</voice></note></measure><measure number="4" width="68.32"><note><rest/><duration>16</duration><voice>1</voice></note></measure><measure number="5" width="256.22"><note default-x="10.00" default-y="-45.00" dynamics="111.11"><pitch><step>D</step><octave>4</octave></pitch><duration>3</duration><voice>1</voice><type>eighth</type><dot/><stem>up</stem><beam number="1">begin</beam><voice>1</voice>
<lyric>
<syllabic>single</syllabic>
<text>me</text>
</lyric>
</note><note default-x="44.70" default-y="-45.00" dynamics="111.11"><pitch><step>D</step><octave>4</octave></pitch><duration>1</duration><tie type="start"/><voice>1</voice><type>16th</type><stem>up</stem><beam number="1">end</beam><beam number="2">backward hook</beam><notations><tied type="start"/></notations><voice>1</voice>
<lyric>
<syllabic>single</syllabic>
<text>vea</text>
</lyric>
</note><note default-x="62.49" default-y="-45.00" dynamics="111.11"><pitch><step>D</step><octave>4</octave></pitch><duration>2</duration><tie type="stop"/><voice>1</voice><type>eighth</type><stem>up</stem><beam number="1">begin</beam><notations><tied type="stop"/></notations></note><note default-x="90.95" default-y="-50.00" dynamics="111.11"><pitch><step>C</step><octave>4</octave></pitch><duration>2</duration><voice>1</voice><type>eighth</type><stem>up</stem><beam number="1">end</beam><voice>1</voice>
<lyric>
<syllabic>single</syllabic>
<text>a</text>
</lyric>
</note><note default-x="119.40" default-y="-45.00" dynamics="111.11"><pitch><step>D</step><octave>4</octave></pitch><duration>2</duration><voice>1</voice><type>eighth</type><stem>up</stem><beam number="1">begin</beam><voice>1</voice>
<lyric>
<syllabic>single</syllabic>
<text>guapo</text>
</lyric>
</note><note default-x="147.86" default-y="-45.00" dynamics="111.11"><pitch><step>D</step><octave>4</octave></pitch><duration>1</duration><voice>1</voice><type>16th</type><stem>up</stem><beam number="1">continue</beam><beam number="2">begin</beam><voice>1</voice>
<lyric>
<syllabic>single</syllabic>
<text>o</text>
</lyric>
</note><note default-x="165.65" default-y="-45.00" dynamics="111.11"><pitch><step>D</step><octave>4</octave></pitch><duration>1</duration><tie type="start"/><voice>1</voice><type>16th</type><stem>up</stem><beam number="1">end</beam><beam number="2">end</beam><notations><tied type="start"/></notations><voice>1</voice>
<lyric>
<syllabic>single</syllabic>
<text>y</text>
</lyric>
</note><note default-x="183.44" default-y="-45.00" dynamics="111.11"><pitch><step>D</step><octave>4</octave></pitch><duration>1</duration><tie type="stop"/><voice>1</voice><type>16th</type><stem>up</stem><beam number="1">begin</beam><beam number="2">begin</beam><notations><tied type="stop"/></notations></note><note default-x="202.90" default-y="-50.00" dynamics="111.11"><pitch><step>C</step><octave>4</octave></pitch><duration>1</duration><voice>1</voice><type>16th</type><stem>up</stem><beam number="1">continue</beam><beam number="2">end</beam><voice>1</voice>
<lyric>
<syllabic>single</syllabic>
<text>cuando</text>
</lyric>
</note><note default-x="226.17" default-y="-50.00" dynamics="111.11"><pitch><step>C</step><octave>4</octave></pitch><duration>2</duration><voice>1</voice><type>eighth</type><stem>up</stem><beam number="1">end</beam><voice>1</voice>
<lyric>
<syllabic>single</syllabic>
<text>o</text>
</lyric>
</note></measure><measure number="6" width="109.11"><note default-x="10.00" default-y="-40.00" dynamics="111.11"><pitch><step>E</step><octave>4</octave></pitch><duration>4</duration><voice>1</voice><type>quarter</type><stem>up</stem><voice>1</voice>
<lyric>
<syllabic>single</syllabic>
<text>me</text>
</lyric>
</note><note default-x="34.38" default-y="-40.00" dynamics="111.11"><pitch><step>E</step><octave>4</octave></pitch><duration>4</duration><voice>1</voice><type>quarter</type><stem>up</stem><voice>1</voice>
<lyric>
<syllabic>single</syllabic>
<text>e</text>
</lyric>
</note><note default-x="58.76" default-y="-45.00" dynamics="111.11"><pitch><step>D</step><octave>4</octave></pitch><duration>4</duration><voice>1</voice><type>quarter</type><stem>up</stem><voice>1</voice>
<lyric>
<syllabic>single</syllabic>
<text>vea</text>
</lyric>
</note><note default-x="83.13" default-y="-40.00" dynamics="111.11"><pitch><step>E</step><octave>4</octave></pitch><duration>4</duration><voice>1</voice><type>quarter</type><stem>up</stem><voice>1</voice>
<lyric>
<syllabic>single</syllabic>
<text>a</text>
</lyric>
</note></measure><measure number="7" width="233.42"><note default-x="10.00" default-y="-35.00" dynamics="111.11"><pitch><step>F</step><octave>4</octave></pitch><duration>3</duration><voice>1</voice><type>eighth</type><dot/><stem>up</stem><beam number="1">begin</beam><voice>1</voice>
<lyric>
<syllabic>begin</syllabic>
<text>quierous</text>
</lyric>
</note><note default-x="42.42" default-y="-35.00" dynamics="111.11"><pitch><step>F</step><octave>4</octave></pitch><duration>1</duration><tie type="start"/><voice>1</voice><type>16th</type><stem>up</stem><beam number="1">end</beam><beam number="2">backward hook</beam><notations><tied type="start"/></notations><voice>1</voice>
<lyric>
<syllabic>end</syllabic>
<text>tede</text>
</lyric>
</note><note default-x="59.03" default-y="-35.00" dynamics="111.11"><pitch><step>F</step><octave>4</octave></pitch><duration>2</duration><tie type="stop"/><voice>1</voice><type>eighth</type><stem>up</stem><beam number="1">begin</beam><notations><tied type="stop"/></notations></note><note default-x="85.61" default-y="-35.00" dynamics="111.11"><pitch><step>F</step><octave>4</octave></pitch><duration>2</duration><voice>1</voice><type>eighth</type><stem>up</stem><beam number="1">end</beam><voice>1</voice>
<lyric>
<syllabic>single</syllabic>
<text>e</text>
</lyric>
</note><note default-x="112.20" default-y="-35.00" dynamics="111.11"><pitch><step>F</step><octave>4</octave></pitch><duration>2</duration><voice>1</voice><type>eighth</type><stem>up</stem><beam number="1">begin</beam><voice>1</voice>
<lyric>
<syllabic>single</syllabic>
<text>e</text>
</lyric>
</note><note default-x="138.78" default-y="-40.00" dynamics="111.11"><pitch><step>E</step><octave>4</octave></pitch><duration>1</duration><voice>1</voice><type>16th</type><stem>up</stem><beam number="1">continue</beam><beam number="2">begin</beam><voice>1</voice>
<lyric>
<syllabic>single</syllabic>
<text>e</text>
</lyric>
</note><note default-x="155.40" default-y="-40.00" dynamics="111.11"><pitch><step>E</step><octave>4</octave></pitch><duration>1</duration><tie type="start"/><voice>1</voice><type>16th</type><stem>up</stem><beam number="1">end</beam><beam number="2">end</beam><notations><tied type="start"/></notations><voice>1</voice>
<lyric>
<syllabic>single</syllabic>
<text>lo</text>
</lyric>
</note><note default-x="172.01" default-y="-40.00" dynamics="111.11"><pitch><step>E</step><octave>4</octave></pitch><duration>1</duration><tie type="stop"/><voice>1</voice><type>16th</type><stem>up</stem><beam number="1">begin</beam><beam number="2">begin</beam><notations><tied type="stop"/></notations></note><note default-x="188.63" default-y="-35.00" dynamics="111.11"><pitch><step>F</step><octave>4</octave></pitch><duration>1</duration><voice>1</voice><type>16th</type><stem>up</stem><beam number="1">continue</beam><beam number="2">end</beam><voice>1</voice>
<lyric>
<syllabic>single</syllabic>
<text>o</text>
</lyric>
</note><note default-x="205.24" default-y="-35.00" dynamics="111.11"><pitch><step>F</step><octave>4</octave></pitch><duration>2</duration><voice>1</voice><type>eighth</type><stem>up</stem><beam number="1">end</beam><voice>1</voice>
<lyric>
<syllabic>single</syllabic>
<text>o</text>
</lyric>
</note></measure><measure number="8" width="149.27"><note default-x="13.80" default-y="-50.00" dynamics="111.11"><pitch><step>C</step><octave>4</octave></pitch><duration>4</duration><voice>1</voice><type>quarter</type><stem>up</stem><voice>1</voice>
<lyric>
<syllabic>single</syllabic>
<text>o</text>
</lyric>
</note><note default-x="45.02" default-y="-50.00" dynamics="111.11"><pitch><step>C</step><octave>4</octave></pitch><duration>4</duration><voice>1</voice><type>quarter</type><stem>up</stem><voice>1</voice>
<lyric>
<syllabic>single</syllabic>
<text>o</text>
</lyric>
</note><note default-x="76.24" default-y="-50.00" dynamics="111.11"><pitch><step>C</step><octave>4</octave></pitch><duration>4</duration><voice>1</voice><type>quarter</type><stem>up</stem><voice>1</voice>
<lyric>
<syllabic>single</syllabic>
<text>o</text>
</lyric>
</note><note default-x="107.45" default-y="-50.00" dynamics="111.11"><pitch><step>C</step><octave>4</octave></pitch><duration>4</duration><voice>1</voice><type>quarter</type><stem>up</stem><voice>1</voice>
<lyric>
<syllabic>single</syllabic>
<text>louis</text>
</lyric>
</note><barline location="right"><bar-style>light-heavy</bar-style></barline></measure></part></score-partwise>