<?xml version="1.0" encoding="UTF-8"?><!DOCTYPE score-partwise PUBLIC "-//Recordare//DTD MusicXML 3.1 Partwise//EN" "http://www.musicxml.org/dtds/partwise.dtd"><score-partwise version="3.1"><identification><encoding><software>MuseScore 3.2.3</software><encoding-date>2021-05-19</encoding-date><supports element="accidental" type="yes"/><supports element="beam" type="yes"/><supports element="print" attribute="new-page" type="yes" value="yes"/><supports element="print" attribute="new-system" type="yes" value="yes"/><supports element="stem" type="yes"/></encoding></identification><defaults><scaling><millimeters>7.05556</millimeters><tenths>40</tenths></scaling><page-layout><page-height>1683.78</page-height><page-width>1190.55</page-width><page-margins type="even"><left-margin>56.6929</left-margin><right-margin>56.6929</right-margin><top-margin>56.6929</top-margin><bottom-margin>113.386</bottom-margin></page-margins><page-margins type="odd"><left-margin>56.6929</left-margin><right-margin>56.6929</right-margin><top-margin>56.6929</top-margin><bottom-margin>113.386</bottom-margin></page-margins></page-layout><word-font font-family="FreeSerif" font-size="10"/><lyric-font font-family="FreeSerif" font-size="11"/></defaults><part-list><score-part id="P1"><part-name>Grand Piano</part-name><score-instrument id="P1-I1"><instrument-name></instrument-name></score-instrument><midi-device id="P1-I1" port="1"></midi-device><midi-instrument id="P1-I1"><midi-channel>1</midi-channel><midi-program>1</midi-program><volume>78.7402</volume><pan>0</pan></midi-instrument></score-part></part-list><part id="P1"><measure number="1" width="129.88"><print><system-layout><system-margins><left-margin>0.00</left-margin><right-margin>0.00</right-margin></system-margins><top-system-distance>70.00</top-system-distance></system-layout></print><attributes><divisions>4</divisions><key><fifths>-1</fifths></key><time><beats>4</beats><beat-type>4</beat-type></time><clef><sign>G</sign><line>2</line></clef></attributes><direction placement="above"><direction-type><metronome parentheses="no" default-x="-36.00" relative-y="20.00"><beat-unit>quarter</beat-unit><per-minute>93</per-minute></metronome></direction-type><sound tempo="93"/></direction><note><rest/><duration>16</duration><voice>1</voice></note></measure><measure number="2" width="55.01"><note><rest/><duration>16</duration><voice>1</voice></note></measure><measure number="3" width="55.01"><note><rest/><duration>16</duration><voice>1</voice></note></measure><measure number="4" width="55.01"><note><rest/><duration>16</duration><voice>1</voice></note></measure><measure number="5" width="181.58"><note default-x="10.00" default-y="-35.00" dynamics="111.11"><pitch><step>F</step><octave>4</octave></pitch><duration>3</duration><voice>1</voice><type>eighth</type><dot/><stem>up</stem><beam number="1">begin</beam><voice>1</voice>
<lyric>
<syllabic>single</syllabic>
<text>que</text>
</lyric>
</note><note default-x="35.56" default-y="-35.00" dynamics="111.11"><pitch><step>F</step><octave>4</octave></pitch><duration>1</duration><tie type="start"/><voice>1</voice><type>16th</type><stem>up</stem><beam number="1">end</beam><beam number="2">backward hook</beam><notations><tied type="start"/></notations><voice>1</voice>
<lyric>
<syllabic>single</syllabic>
<text>e</text>
</lyric>
</note><note default-x="52.01" default-y="-35.00" dynamics="111.11"><pitch><step>F</step><octave>4</octave></pitch><duration>2</duration><tie type="stop"/><voice>1</voice><type>eighth</type><stem>up</stem><beam number="1">begin</beam><notations><tied type="stop"/></notations></note><note default-x="72.97" default-y="-35.00" dynamics="111.11"><pitch><step>F</step><octave>4</octave></pitch><duration>2</duration><voice>1</voice><type>eighth</type><stem>up</stem><beam number="1">end</beam><voice>1</voice>
<lyric>
<syllabic>single</syllabic>
<text>irme</text>
</lyric>
</note><note default-x="93.93" default-y="-30.00" dynamics="111.11"><pitch><step>G</step><octave>4</octave></pitch><duration>2</duration><voice>1</voice><type>eighth</type><stem>up</stem><beam number="1">begin</beam><voice>1</voice>
<lyric>
<syllabic>single</syllabic>
<text>e</text>
</lyric>
</note><note default-x="114.89" default-y="-35.00" dynamics="111.11"><pitch><step>F</step><octave>4</octave></pitch><duration>2</duration><voice>1</voice><type>eighth</type><stem>up</stem><beam number="1">continue</beam><voice>1</voice>
<lyric>
<syllabic>single</syllabic>
<text>a</text>
</lyric>
</note><note default-x="135.85" default-y="-30.00" dynamics="111.11"><pitch><step>G</step><octave>4</octave></pitch><duration>2</duration><voice>1</voice><type>eighth</type><stem>up</stem><beam number="1">continue</beam><voice>1</voice>
<lyric>
<syllabic>single</syllabic>
<text>a</text>
</lyric>
</note><note default-x="156.82" default-y="-30.00" dynamics="111.11"><pitch><step>G</step><octave>4</octave></pitch><duration>2</duration><voice>1</voice><type>eighth</type><stem>up</stem><beam number="1">end</beam><voice>1</voice>
<lyric>
<syllabic>single</syllabic>
<text>pedirle</text>
</lyric>
</note></measure><measure number="6" width="209.54"><note default-x="10.00" default-y="-25.00" dynamics="111.11"><pitch><step>A</step><octave>4</octave></pitch><duration>2</duration><voice>1</voice><type>eighth</type><stem>up</stem><beam number="1">begin</beam><voice>1</voice>
<lyric>
<syllabic>single</syllabic>
<text>e</text>
</lyric>
</note><note default-x="32.27" default-y="-25.00" dynamics="111.11"><pitch><step>A</step><octave>4</octave></pitch><duration>1</duration><voice>1</voice><type>16th</type><stem>up</stem><beam number="1">continue</beam><beam number="2">begin</beam><voice>1</voice>
<lyric>
<syllabic>single</syllabic>
<text>prestado</text>
</lyric>
</note><note default-x="47.93" default-y="-25.00" dynamics="111.11"><pitch><step>A</step><octave>4</octave></pitch><duration>1</duration><tie type="start"/><voice>1</voice><type>16th</type><stem>up</stem><beam number="1">end</beam><beam number="2">end</beam><notations><tied type="start"/></notations><voice>1</voice>
<lyric>
<syllabic>single</syllabic>
<text>o</text>
</lyric>
</note><note default-x="64.38" default-y="-25.00" dynamics="111.11"><pitch><step>A</step><octave>4</octave></pitch><duration>1</duration><tie type="stop"/><voice>1</voice><type>16th</type><stem>up</stem><beam number="1">begin</beam><beam number="2">begin</beam><notations><tied type="stop"/></notations></note><note default-x="80.05" default-y="-25.00" dynamics="111.11"><pitch><step>A</step><octave>4</octave></pitch><duration>1</duration><voice>1</voice><type>16th</type><stem>up</stem><beam number="1">continue</beam><beam number="2">end</beam><voice>1</voice>
<lyric>
<syllabic>single</syllabic>
<text>a</text>
</lyric>
</note><note default-x="95.71" default-y="-25.00" dynamics="111.11"><pitch><step>A</step><octave>4</octave></pitch><duration>2</duration><voice>1</voice><type>eighth</type><stem>up</stem><beam number="1">end</beam><voice>1</voice>
<lyric>
<syllabic>single</syllabic>
<text>a</text>
</lyric>
</note><note default-x="117.98" default-y="-25.00" dynamics="111.11"><pitch><step>A</step><octave>4</octave></pitch><duration>2</duration><voice>1</voice><type>eighth</type><stem>up</stem><beam number="1">begin</beam><voice>1</voice>
<lyric>
<syllabic>single</syllabic>
<text>mi</text>
</lyric>
</note><note default-x="140.24" default-y="-25.00" dynamics="111.11"><pitch><step>A</step><octave>4</octave></pitch><duration>2</duration><voice>1</voice><type>eighth</type><stem>up</stem><beam number="1">continue</beam><voice>1</voice>
<lyric>
<syllabic>single</syllabic>
<text>i</text>
</lyric>
</note><note default-x="162.51" default-y="-25.00" dynamics="111.11"><pitch><step>A</step><octave>4</octave></pitch><duration>2</duration><voice>1</voice><type>eighth</type><stem>up</stem><beam number="1">continue</beam><voice>1</voice>
<lyric>
<syllabic>single</syllabic>
<text>i</text>
</lyric>
</note><note default-x="184.78" default-y="-25.00" dynamics="111.11"><pitch><step>A</step><octave>4</octave></pitch><duration>2</duration><voice>1</voice><type>eighth</type><stem>up</stem><beam number="1">end</beam><voice>1</voice>
<lyric>
<syllabic>single</syllabic>
<text>i</text>
</lyric>
</note></measure><measure number="7" width="181.58"><note default-x="10.00" default-y="-20.00" dynamics="111.11"><pitch><step>B</step><alter>-1</alter><octave>4</octave></pitch><duration>3</duration><voice>1</voice><type>eighth</type><dot/><stem>up</stem><beam number="1">begin</beam><voice>1</voice>
<lyric>
<syllabic>begin</syllabic>
<text>es</text>
</lyric>
</note><note default-x="35.56" default-y="-25.00" dynamics="111.11"><pitch><step>A</step><octave>4</octave></pitch><duration>1</duration><tie type="start"/><voice>1</voice><type>16th</type><stem>up</stem><beam number="1">end</beam><beam number="2">backward hook</beam><notations><tied type="start"/></notations><voice>1</voice>
<lyric>
<syllabic>end</syllabic>
<text>tabalo</text>
</lyric>
</note><note default-x="52.01" default-y="-25.00" dynamics="111.11"><pitch><step>A</step><octave>4</octave></pitch><duration>2</duration><tie type="stop"/><voice>1</voice><type>eighth</type><stem>up</stem><beam number="1">begin</beam><notations><tied type="stop"/></notations></note><note default-x="72.97" default-y="-25.00" dynamics="111.11"><pitch><step>A</step><octave>4</octave></pitch><duration>2</duration><voice>1</voice><type>eighth</type><stem>up</stem><beam number="1">end</beam><voice>1</voice>
<lyric>
<syllabic>single</syllabic>
<text>o</text>
</lyric>
</note><note default-x="93.93" default-y="-25.00" dynamics="111.11"><pitch><step>A</step><octave>4</octave></pitch><duration>2</duration><voice>1</voice><type>eighth</type><stem>up</stem><beam number="1">begin</beam><voice>1</voice>
<lyric>
<syllabic>begin</syllabic>
<text>ma</text>
</lyric>
</note><note default-x="114.89" default-y="-20.00" dynamics="111.11"><pitch><step>B</step><alter>-1</alter><octave>4</octave></pitch><duration>2</duration><voice>1</voice><type>eighth</type><stem>up</stem><beam number="1">continue</beam><voice>1</voice>
<lyric>
<syllabic>end</syllabic>
<text>as</text>
</lyric>
</note><note default-x="135.85" default-y="-20.00" dynamics="111.11"><pitch><step>B</step><alter>-1</alter><octave>4</octave></pitch><duration>2</duration><voice>1</voice><type>eighth</type><stem>up</stem><beam number="1">continue</beam><voice>1</voice>
<lyric>
<syllabic>single</syllabic>
<text>y</text>
</lyric>
</note><note default-x="156.82" default-y="-25.00" dynamics="111.11"><pitch><step>A</step><octave>4</octave></pitch><duration>2</duration><voice>1</voice><type>eighth</type><stem>up</stem><beam number="1">end</beam><voice>1</voice>
<lyric>
<syllabic>single</syllabic>
<text>si</text>
</lyric>
</note></measure><measure number="8" width="209.54"><note default-x="10.00" default-y="-35.00" dynamics="111.11"><pitch><step>F</step><octave>4</octave></pitch><duration>2</duration><voice>1</voice><type>eighth</type><stem>up</stem><beam number="1">begin</beam><voice>1</voice>
<lyric>
<syllabic>single</syllabic>
<text>i</text>
</lyric>
</note><note default-x="32.27" default-y="-35.00" dynamics="111.11"><pitch><step>F</step><octave>4</octave></pitch><duration>1</duration><voice>1</voice><type>16th</type><stem>up</stem><beam number="1">continue</beam><beam number="2">begin</beam><voice>1</voice>
<lyric>
<syllabic>single</syllabic>
<text>que</text>
</lyric>
</note><note default-x="47.93" default-y="-35.00" dynamics="111.11"><pitch><step>F</step><octave>4</octave></pitch><duration>1</duration><tie type="start"/><voice>1</voice><type>16th</type><stem>up</stem><beam number="1">end</beam><beam number="2">end</beam><notations><tied type="start"/></notations><voice>1</voice>
<lyric>
<syllabic>single</syllabic>
<text>e</text>
</lyric>
</note><note default-x="64.38" default-y="-35.00" dynamics="111.11"><pitch><step>F</step><octave>4</octave></pitch><duration>1</duration><tie type="stop"/><voice>1</voice><type>16th</type><stem>up</stem><beam number="1">begin</beam><beam number="2">begin</beam><notations><tied type="stop"/></notations></note><note default-x="80.05" default-y="-40.00" dynamics="111.11"><pitch><step>E</step><octave>4</octave></pitch><duration>1</duration><voice>1</voice><type>16th</type><stem>up</stem><beam number="1">continue</beam><beam number="2">end</beam><voice>1</voice>
<lyric>
<syllabic>single</syllabic>
<text>me</text>
</lyric>
</note><note default-x="95.71" default-y="-35.00" dynamics="111.11"><pitch><step>F</step><octave>4</octave></pitch><duration>2</duration><voice>1</voice><type>eighth</type><stem>up</stem><beam number="1">end</beam><voice>1</voice>
<lyric>
<syllabic>single</syllabic>
<text>e</text>
</lyric>
</note><note default-x="117.98" default-y="-35.00" dynamics="111.11"><pitch><step>F</step><octave>4</octave></pitch><duration>2</duration><voice>1</voice><type>eighth</type><stem>up</stem><beam number="1">begin</beam><voice>1</voice>
<lyric>
<syllabic>single</syllabic>
<text>dolio</text>
</lyric>
</note><note default-x="140.24" default-y="-35.00" dynamics="111.11"><pitch><step>F</step><octave>4</octave></pitch><duration>2</duration><voice>1</voice><type>eighth</type><stem>up</stem><beam number="1">continue</beam><voice>1</voice>
<lyric>
<syllabic>single</syllabic>
<text>o</text>
</lyric>
</note><note default-x="162.51" default-y="-40.00" dynamics="111.11"><pitch><step>E</step><octave>4</octave></pitch><duration>2</duration><voice>1</voice><type>eighth</type><stem>up</stem><beam number="1">continue</beam><voice>1</voice>
<lyric>
<syllabic>single</syllabic>
<text>o</text>
</lyric>
</note><note default-x="184.78" default-y="-40.00" dynamics="111.11"><pitch><step>E</step><octave>4</octave></pitch><duration>2</duration><voice>1</voice><type>eighth</type><stem>up</stem><beam number="1">end</beam><voice>1</voice>
<lyric>
<syllabic>single</syllabic>
<text>o</text>
</lyric>
</note></measure><measure number="9" width="289.32"><print new-system="yes"><system-layout><system-margins><left-margin>0.00</left-margin><right-margin>0.00</right-margin></system-margins><system-distance>150.00</system-distance></system-layout></print><note default-x="77.21" default-y="-15.00" dynamics="111.11"><pitch><step>C</step><octave>5</octave></pitch><duration>8</duration><voice>1</voice><type>half</type><stem>down</stem><voice>1</voice>
<lyric>
<syllabic>single</syllabic>
<text>a</text>
</lyric>
</note><note default-x="182.28" default-y="-20.00" dynamics="111.11"><pitch><step>B</step><alter>-1</alter><octave>4</octave></pitch><duration>8</duration><voice>1</voice><type>half</type><stem>down</stem><voice>1</voice>
<lyric>
<syllabic>begin</syllabic>
<text>de</text>
</lyric>
</note></measure><measure number="10" width="278.15"><note default-x="10.00" default-y="-20.00" dynamics="111.11"><pitch><step>B</step><alter>-1</alter><octave>4</octave></pitch><duration>2</duration><voice>1</voice><type>eighth</type><stem>up</stem><beam number="1">begin</beam><voice>1</voice>
<lyric>
<syllabic>middle</syllabic>
<text>jam</text>
</lyric>
</note><note default-x="52.99" default-y="-25.00" dynamics="111.11"><pitch><step>A</step><octave>4</octave></pitch><duration>2</duration><voice>1</voice><type>eighth</type><stem>up</stem><beam number="1">continue</beam><voice>1</voice>
<lyric>
<syllabic>end</syllabic>
<text>elo</text>
</lyric>
</note><note default-x="95.98" default-y="-25.00" dynamics="111.11"><pitch><step>A</step><octave>4</octave></pitch><duration>2</duration><voice>1</voice><type>eighth</type><stem>up</stem><beam number="1">continue</beam><voice>1</voice>
<lyric>
<syllabic>single</syllabic>
<text>no</text>
</lyric>
</note><note default-x="138.98" default-y="-20.00" dynamics="111.11"><pitch><step>B</step><alter>-1</alter><octave>4</octave></pitch><duration>2</duration><voice>1</voice><type>eighth</type><stem>up</stem><beam number="1">end</beam><voice>1</voice>
<lyric>
<syllabic>single</syllabic>
<text>que</text>
</lyric>
</note><note default-x="181.61" default-y="-20.00" dynamics="111.11"><pitch><step>B</step><alter>-1</alter><octave>4</octave></pitch><duration>8</duration><voice>1</voice><type>half</type><stem>down</stem><voice>1</voice>
<lyric>
<syllabic>single</syllabic>
<text>loe</text>
</lyric>
</note></measure><measure number="11" width="222.55"><note default-x="10.00" default-y="-35.00" dynamics="111.11"><pitch><step>F</step><octave>4</octave></pitch><duration>8</duration><voice>1</voice><type>half</type><stem>up</stem><voice>1</voice>
<lyric>
<syllabic>single</syllabic>
<text>y</text>
</lyric>
</note><note default-x="115.29" default-y="-40.00" dynamics="111.11"><pitch><step>E</step><octave>4</octave></pitch><duration>8</duration><voice>1</voice><type>half</type><stem>up</stem><voice>1</voice>
<lyric>
<syllabic>single</syllabic>
<text>tu</text>
</lyric>
</note></measure><measure number="12" width="287.15"><note default-x="10.00" default-y="-25.00" dynamics="111.11"><pitch><step>A</step><octave>4</octave></pitch><duration>2</duration><voice>1</voice><type>eighth</type><stem>up</stem><beam number="1">begin</beam><voice>1</voice>
<lyric>
<syllabic>single</syllabic>
<text>u</text>
</lyric>
</note><note default-x="52.99" default-y="-30.00" dynamics="111.11"><pitch><step>G</step><octave>4</octave></pitch><duration>2</duration><voice>1</voice><type>eighth</type><stem>up</stem><beam number="1">continue</beam><voice>1</voice>
<lyric>
<syllabic>single</syllabic>
<text>eres</text>
</lyric>
</note><note default-x="95.98" default-y="-25.00" dynamics="111.11"><pitch><step>A</step><octave>4</octave></pitch><duration>2</duration><voice>1</voice><type>eighth</type><stem>up</stem><beam number="1">continue</beam><voice>1</voice>
<lyric>
<syllabic>single</syllabic>
<text>free</text>
</lyric>
</note><note default-x="138.98" default-y="-25.00" dynamics="111.11"><pitch><step>A</step><octave>4</octave></pitch><duration>2</duration><voice>1</voice><type>eighth</type><stem>up</stem><beam number="1">end</beam><voice>1</voice>
<lyric>
<syllabic>single</syllabic>
<text>e</text>
</lyric>
</note><note default-x="181.61" default-y="-25.00" dynamics="111.11"><pitch><step>A</step><octave>4</octave></pitch><duration>8</duration><voice>1</voice><type>half</type><stem>up</stem><voice>1</voice>
<lyric>
<syllabic>single</syllabic>
<text>e</text>
</lyric>
</note><barline location="right"><bar-style>light-heavy</bar-style></barline></measure></part></score-partwise>