<?xml version="1.0" encoding="UTF-8"?><!DOCTYPE score-partwise PUBLIC "-//Recordare//DTD MusicXML 3.1 Partwise//EN" "http://www.musicxml.org/dtds/partwise.dtd"><score-partwise version="3.1"><identification><encoding><software>MuseScore 3.2.3</software><encoding-date>2021-05-19</encoding-date><supports element="accidental" type="yes"/><supports element="beam" type="yes"/><supports element="print" attribute="new-page" type="yes" value="yes"/><supports element="print" attribute="new-system" type="yes" value="yes"/><supports element="stem" type="yes"/></encoding></identification><defaults><scaling><millimeters>7.05556</millimeters><tenths>40</tenths></scaling><page-layout><page-height>1683.78</page-height><page-width>1190.55</page-width><page-margins type="even"><left-margin>56.6929</left-margin><right-margin>56.6929</right-margin><top-margin>56.6929</top-margin><bottom-margin>113.386</bottom-margin></page-margins><page-margins type="odd"><left-margin>56.6929</left-margin><right-margin>56.6929</right-margin><top-margin>56.6929</top-margin><bottom-margin>113.386</bottom-margin></page-margins></page-layout><word-font font-family="FreeSerif" font-size="10"/><lyric-font font-family="FreeSerif" font-size="11"/></defaults><part-list><score-part id="P1"><part-name>Grand Piano</part-name><score-instrument id="P1-I1"><instrument-name></instrument-name></score-instrument><midi-device id="P1-I1" port="1"></midi-device><midi-instrument id="P1-I1"><midi-channel>1</midi-channel><midi-program>1</midi-program><volume>78.7402</volume><pan>0</pan></midi-instrument></score-part></part-list><part id="P1"><measure number="1" width="152.25"><print><system-layout><system-margins><left-margin>0.00</left-margin><right-margin>0.00</right-margin></system-margins><top-system-distance>70.00</top-system-distance></system-layout></print><attributes><divisions>4</divisions><key><fifths>2</fifths></key><time><beats>4</beats><beat-type>4</beat-type></time><clef><sign>G</sign><line>2</line></clef></attributes><direction placement="above"><direction-type><metronome parentheses="no" default-x="-36.00" relative-y="20.00"><beat-unit>quarter</beat-unit><per-minute>86</per-minute></metronome></direction-type><sound tempo="86"/></direction><note><rest/><duration>16</duration><voice>1</voice></note></measure><measure number="2" width="66.56"><note><rest/><duration>16</duration><voice>1</voice></note></measure><measure number="3" width="66.56"><note><rest/><duration>16</duration><voice>1</voice></note></measure><measure number="4" width="66.56"><note><rest/><duration>16</duration><voice>1</voice></note></measure><measure number="5" width="193.12"><note default-x="10.00" default-y="-40.00" dynamics="111.11"><pitch><step>E</step><octave>4</octave></pitch><duration>3</duration><voice>1</voice><type>eighth</type><dot/><stem>up</stem><beam number="1">begin</beam><voice>1</voice>
<lyric>
<syllabic>single</syllabic>
<text>y</text>
</lyric>
</note><note default-x="37.82" default-y="-40.00" dynamics="111.11"><pitch><step>E</step><octave>4</octave></pitch><duration>1</duration><tie type="start"/><voice>1</voice><type>16th</type><stem>up</stem><beam number="1">end</beam><beam number="2">backward hook</beam><notations><tied type="start"/></notations><voice>1</voice>
<lyric>
<syllabic>single</syllabic>
<text>si</text>
</lyric>
</note><note default-x="54.27" default-y="-40.00" dynamics="111.11"><pitch><step>E</step><octave>4</octave></pitch><duration>2</duration><tie type="stop"/><voice>1</voice><type>eighth</type><stem>up</stem><beam number="1">begin</beam><notations><tied type="stop"/></notations></note><note default-x="77.09" default-y="-40.00" dynamics="111.11"><pitch><step>E</step><octave>4</octave></pitch><duration>2</duration><voice>1</voice><type>eighth</type><stem>up</stem><beam number="1">end</beam><voice>1</voice>
<lyric>
<syllabic>single</syllabic>
<text>i</text>
</lyric>
</note><note default-x="99.91" default-y="-45.00" dynamics="111.11"><pitch><step>D</step><octave>4</octave></pitch><duration>2</duration><voice>1</voice><type>eighth</type><stem>up</stem><beam number="1">begin</beam><voice>1</voice>
<lyric>
<syllabic>single</syllabic>
<text>te</text>
</lyric>
</note><note default-x="122.72" default-y="-40.00" dynamics="111.11"><pitch><step>E</step><octave>4</octave></pitch><duration>2</duration><voice>1</voice><type>eighth</type><stem>up</stem><beam number="1">continue</beam><voice>1</voice>
<lyric>
<syllabic>single</syllabic>
<text>e</text>
</lyric>
</note><note default-x="145.54" default-y="-45.00" dynamics="111.11"><pitch><step>D</step><octave>4</octave></pitch><duration>2</duration><voice>1</voice><type>eighth</type><stem>up</stem><beam number="1">continue</beam><voice>1</voice>
<lyric>
<syllabic>begin</syllabic>
<text>pre</text>
</lyric>
</note><note default-x="168.36" default-y="-40.00" dynamics="111.11"><pitch><step>E</step><octave>4</octave></pitch><duration>2</duration><voice>1</voice><type>eighth</type><stem>up</stem><beam number="1">end</beam><voice>1</voice>
<lyric>
<syllabic>end</syllabic>
<text>e</text>
</lyric>
</note></measure><measure number="6" width="144.95"><note default-x="10.00" default-y="-30.00" dynamics="111.11"><pitch><step>G</step><octave>4</octave></pitch><duration>4</duration><voice>1</voice><type>quarter</type><stem>up</stem><voice>1</voice>
<lyric>
<syllabic>begin</syllabic>
<text>gun</text>
</lyric>
</note><note default-x="38.43" default-y="-30.00" dynamics="111.11"><pitch><step>G</step><octave>4</octave></pitch><duration>4</duration><voice>1</voice><type>quarter</type><stem>up</stem><voice>1</voice>
<lyric>
<syllabic>end</syllabic>
<text>tan</text>
</lyric>
</note><note default-x="66.87" default-y="-30.00" dynamics="111.11"><pitch><step>G</step><octave>4</octave></pitch><duration>2</duration><voice>1</voice><type>eighth</type><stem>up</stem><beam number="1">begin</beam><voice>1</voice>
<lyric>
<syllabic>single</syllabic>
<text>solo</text>
</lyric>
</note><note default-x="84.64" default-y="-35.00" dynamics="111.11"><pitch><step>F</step><alter>1</alter><octave>4</octave></pitch><duration>2</duration><voice>1</voice><type>eighth</type><stem>up</stem><beam number="1">continue</beam><voice>1</voice>
<lyric>
<syllabic>single</syllabic>
<text>o</text>
</lyric>
</note><note default-x="102.41" default-y="-30.00" dynamics="111.11"><pitch><step>G</step><octave>4</octave></pitch><duration>2</duration><voice>1</voice><type>eighth</type><stem>up</stem><beam number="1">continue</beam><voice>1</voice>
<lyric>
<syllabic>single</syllabic>
<text>o</text>
</lyric>
</note><note default-x="120.18" default-y="-35.00" dynamics="111.11"><pitch><step>F</step><alter>1</alter><octave>4</octave></pitch><duration>2</duration><voice>1</voice><type>eighth</type><stem>up</stem><beam number="1">end</beam><voice>1</voice>
<lyric>
<syllabic>single</syllabic>
<text>o</text>
</lyric>
</note></measure><measure number="7" width="233.22"><note default-x="10.00" default-y="-45.00" dynamics="111.11"><pitch><step>D</step><octave>4</octave></pitch><duration>3</duration><voice>1</voice><type>eighth</type><dot/><stem>up</stem><beam number="1">begin</beam><voice>1</voice>
<lyric>
<syllabic>begin</syllabic>
<text>o</text>
</lyric>
</note><note default-x="43.50" default-y="-50.00" dynamics="111.11"><pitch><step>C</step><alter>1</alter><octave>4</octave></pitch><duration>1</duration><tie type="start"/><voice>1</voice><type>16th</type><stem>up</stem><beam number="1">end</beam><beam number="2">backward hook</beam><notations><tied type="start"/></notations><voice>1</voice>
<lyric>
<syllabic>end</syllabic>
<text>o</text>
</lyric>
</note><note default-x="66.77" default-y="-50.00" dynamics="111.11"><pitch><step>C</step><alter>1</alter><octave>4</octave></pitch><duration>2</duration><tie type="stop"/><voice>1</voice><type>eighth</type><stem>up</stem><beam number="1">begin</beam><notations><tied type="stop"/></notations></note><note default-x="94.24" default-y="-50.00" dynamics="111.11"><pitch><step>C</step><alter>1</alter><octave>4</octave></pitch><duration>2</duration><voice>1</voice><type>eighth</type><stem>up</stem><beam number="1">end</beam><voice>1</voice>
<lyric>
<syllabic>begin</syllabic>
<text>o</text>
</lyric>
</note><note default-x="121.72" default-y="-45.00" dynamics="111.11"><pitch><step>D</step><octave>4</octave></pitch><duration>2</duration><voice>1</voice><type>eighth</type><stem>up</stem><beam number="1">begin</beam><voice>1</voice>
<lyric>
<syllabic>end</syllabic>
<text>oh</text>
</lyric>
</note><note default-x="149.20" default-y="-50.00" dynamics="111.11"><pitch><step>C</step><alter>1</alter><octave>4</octave></pitch><duration>2</duration><voice>1</voice><type>eighth</type><stem>up</stem><beam number="1">continue</beam><voice>1</voice>
<lyric>
<syllabic>single</syllabic>
<text>amor</text>
</lyric>
</note><note default-x="176.67" default-y="-50.00" dynamics="111.11"><pitch><step>C</step><alter>1</alter><octave>4</octave></pitch><duration>2</duration><voice>1</voice><type>eighth</type><stem>up</stem><beam number="1">continue</beam><voice>1</voice>
<lyric>
<syllabic>single</syllabic>
<text>si</text>
</lyric>
</note><note default-x="204.15" default-y="-45.00" dynamics="111.11"><pitch><step>D</step><octave>4</octave></pitch><duration>2</duration><voice>1</voice><type>eighth</type><stem>up</stem><beam number="1">end</beam><voice>1</voice>
<lyric>
<syllabic>single</syllabic>
<text>i</text>
</lyric>
</note></measure><measure number="8" width="153.95"><note default-x="10.00" default-y="-25.00" dynamics="111.11"><pitch><step>A</step><octave>4</octave></pitch><duration>4</duration><voice>1</voice><type>quarter</type><stem>up</stem><voice>1</voice>
<lyric>
<syllabic>single</syllabic>
<text>i</text>
</lyric>
</note><note default-x="38.43" default-y="-25.00" dynamics="111.11"><pitch><step>A</step><octave>4</octave></pitch><duration>4</duration><voice>1</voice><type>quarter</type><stem>up</stem><voice>1</voice>
<lyric>
<syllabic>single</syllabic>
<text>i</text>
</lyric>
</note><note default-x="66.87" default-y="-30.00" dynamics="111.11"><pitch><step>G</step><octave>4</octave></pitch><duration>2</duration><voice>1</voice><type>eighth</type><stem>up</stem><beam number="1">begin</beam><voice>1</voice>
<lyric>
<syllabic>single</syllabic>
<text>i</text>
</lyric>
</note><note default-x="84.64" default-y="-25.00" dynamics="111.11"><pitch><step>A</step><octave>4</octave></pitch><duration>2</duration><voice>1</voice><type>eighth</type><stem>up</stem><beam number="1">continue</beam><voice>1</voice>
<lyric>
<syllabic>single</syllabic>
<text>i</text>
</lyric>
</note><note default-x="102.41" default-y="-25.00" dynamics="111.11"><pitch><step>A</step><octave>4</octave></pitch><duration>2</duration><voice>1</voice><type>eighth</type><stem>up</stem><beam number="1">continue</beam><voice>1</voice>
<lyric>
<syllabic>single</syllabic>
<text>i</text>
</lyric>
</note><note default-x="120.18" default-y="-25.00" dynamics="111.11"><pitch><step>A</step><octave>4</octave></pitch><duration>2</duration><voice>1</voice><type>eighth</type><stem>up</stem><beam number="1">end</beam><voice>1</voice>
<lyric>
<syllabic>single</syllabic>
<text>mujer</text>
</lyric>
</note><barline location="right"><bar-style>light-heavy</bar-style></barline></measure></part></score-partwise>